<svg xmlns="http://www.w3.org/2000/svg" width="51.004" height="51.004" viewBox="0 0 51.004 51.004">
  <path id="Icon_metro-cancel" data-name="Icon metro-cancel" d="M28.073,1.928a25.5,25.5,0,1,0,25.5,25.5,25.5,25.5,0,0,0-25.5-25.5Zm0,46.223A20.72,20.72,0,1,1,48.793,27.43a20.721,20.721,0,0,1-20.721,20.72Zm7.969-33.472-7.969,7.969L20.1,14.679l-4.782,4.782,7.969,7.969L15.322,35.4,20.1,40.181l7.969-7.969,7.969,7.969L40.824,35.4,32.855,27.43l7.969-7.969Z" transform="translate(-2.571 -1.928)" fill="#865454"/>
</svg>
