<svg xmlns="http://www.w3.org/2000/svg" width="513" height="513" viewBox="0 0 513 513">
  <path id="comment-alt-regular" d="M448,0H64A64.059,64.059,0,0,0,0,64V352a64.059,64.059,0,0,0,64,64h96v84a11.966,11.966,0,0,0,12,12,11.482,11.482,0,0,0,7.1-2.4L304,416H448a64.059,64.059,0,0,0,64-64V64A64.059,64.059,0,0,0,448,0Zm16,352a16.047,16.047,0,0,1-16,16H288l-12.8,9.6L208,428V368H64a16.047,16.047,0,0,1-16-16V64A16.047,16.047,0,0,1,64,48H448a16.047,16.047,0,0,1,16,16Z" transform="translate(0.5 0.5)" fill="#fff" stroke="#865454" stroke-width="1"/>
</svg>
