<svg xmlns="http://www.w3.org/2000/svg" width="384" height="512.1" viewBox="0 0 384 512.1">
  <path id="file-image-regular" d="M369.9,97.9,286,14A48,48,0,0,0,252.1-.1H48A48.162,48.162,0,0,0,0,48V464a48.012,48.012,0,0,0,48,48H336a48.012,48.012,0,0,0,48-48V131.9a48.234,48.234,0,0,0-14.1-34ZM332.1,128H256V51.9ZM48,464V48H208V152a23.942,23.942,0,0,0,24,24H336V464Zm32-48H304V288l-23.5-23.5a12.011,12.011,0,0,0-17,0L176,352l-39.5-39.5a12.011,12.011,0,0,0-17,0L80,352Zm48-240a48,48,0,1,0,48,48A48.012,48.012,0,0,0,128,176Z" transform="translate(0 0.1)" fill="#865454"/>
</svg>
