<svg xmlns="http://www.w3.org/2000/svg" width="105.786" height="105.786" viewBox="0 0 105.786 105.786">
  <defs>
    <style>
      .cls-1 {
        fill: #465d4c;
      }
    </style>
  </defs>
  <g id="Icon_ionic-ios-checkmark-circle-outline" data-name="Icon ionic-ios-checkmark-circle-outline" transform="translate(-3.375 -3.375)">
    <path id="路径_22" data-name="路径 22" class="cls-1" d="M64.9,17.114l-4.476-4.6a.962.962,0,0,0-.712-.305h0a.923.923,0,0,0-.712.305L27.981,43.764,16.69,32.473a.983.983,0,0,0-1.424,0L10.74,37a1.013,1.013,0,0,0,0,1.449L24.98,52.69a4.5,4.5,0,0,0,2.975,1.449,4.719,4.719,0,0,0,2.95-1.4h.025l34-34.177A1.087,1.087,0,0,0,64.9,17.114Z" transform="translate(18.472 23.108)"/>
    <path id="路径_23" data-name="路径 23" class="cls-1" d="M56.268,10.5A45.78,45.78,0,0,1,88.639,88.639,45.78,45.78,0,0,1,23.9,23.9,45.47,45.47,0,0,1,56.268,10.5m0-7.12a52.893,52.893,0,1,0,52.893,52.893A52.885,52.885,0,0,0,56.268,3.375Z" transform="translate(0 0)"/>
  </g>
</svg>
