<svg xmlns="http://www.w3.org/2000/svg" width="105.786" height="105.786"><defs><style>.cls-1{fill:#465d4c}</style></defs><g id="Icon_ionic-ios-checkmark-circle-outline" data-name="Icon ionic-ios-checkmark-circle-outline" transform="translate(-3.375 -3.375)"><path id="路径_22" data-name="路径 22" class="cls-1" d="M64.9 17.114l-4.476-4.6a.962.962 0 00-.712-.305.923.923 0 00-.712.305l-31.019 31.25L16.69 32.473a.983.983 0 00-1.424 0L10.74 37a1.013 1.013 0 000 1.449L24.98 52.69a4.5 4.5 0 002.975 1.449 4.719 4.719 0 002.95-1.4h.025l34-34.177a1.087 1.087 0 00-.03-1.448z" transform="translate(18.472 23.108)"/><path id="路径_23" data-name="路径 23" class="cls-1" d="M56.268 10.5a45.78 45.78 0 0132.371 78.139A45.78 45.78 0 0123.9 23.9a45.47 45.47 0 0132.368-13.4m0-7.12a52.893 52.893 0 1052.893 52.893A52.885 52.885 0 0056.268 3.375z"/></g></svg>