<svg xmlns="http://www.w3.org/2000/svg" width="65" height="30"><defs><style>.cls-4{fill:#146643}</style></defs><g id="jcb" transform="translate(0 -69.2)"><path id="路径_38" data-name="路径 38" d="M8.911 69.2C3.879 69.2 0 71.281 0 74.9v10.34c.419 1.275 2.516 2.215 4.823 2.215 2.621 0 4.508-1.208 4.508-2.685v-5.234h7.129V84.7c0 2.886-5.766 4.362-9.96 4.362a15.3 15.3 0 01-6.4-1.271V99.2h11.327c3.984 0 8.6-2.416 8.6-5.5V69.2z" fill="#1174ce"/><path id="路径_39" data-name="路径 39" d="M0 74.9v10.34c.419 1.275 2.516 2.215 4.823 2.215 2.621 0 4.508-1.208 4.508-2.685v-5.234h7.129V84.7c0 2.886-5.766 4.362-9.96 4.362a15.3 15.3 0 01-6.4-1.271V99.2h11.327c3.984 0 8.6-2.416 8.6-5.5V69.2" fill="#0f549d"/><path id="路径_40" data-name="路径 40" d="M16.355 192.4v5.168c0 2.886-5.766 4.362-9.96 4.362A15.3 15.3 0 010 200.655v11.409h11.323c3.984 0 8.6-2.416 8.6-5.5" transform="translate(0 -112.864)" fill="#02375e"/><path id="路径_41" data-name="路径 41" class="cls-4" d="M370.4 251.487h4.927c1.258 0 2.411-.738 2.411-1.544s-1.153-1.544-2.411-1.544H370.4z" transform="translate(-321.86 -164.166)"/><path id="路径_42" data-name="路径 42" d="M353.016 69.2c-5.137 0-8.911 2.081-8.911 5.638v4.7h13.21c1.887 0 3.46 1.007 3.46 2.215s-1.573 2.215-3.46 2.215c2.1 0 3.774.94 3.774 2.148s-1.573 2.148-3.774 2.148H344V99.2h11.323c3.984 0 8.6-2.416 8.6-5.5V69.2z" transform="translate(-298.919)" fill="#1bcc38"/><path id="路径_43" data-name="路径 43" d="M344 74.9v4.631h13.21c1.887 0 3.46 1.007 3.46 2.215s-1.573 2.215-3.46 2.215c2.1 0 3.774.94 3.774 2.148s-1.573 2.148-3.774 2.148H344V99.2h11.323c3.984 0 8.6-2.416 8.6-5.5V69.2" transform="translate(-298.919)" fill="#329947"/><g id="组_95" data-name="组 95" transform="translate(45.081 80.475)"><path id="路径_44" data-name="路径 44" class="cls-4" d="M360.669 218.8c0 1.208-1.573 2.215-3.46 2.215 2.1 0 3.774.94 3.774 2.148s-1.573 2.148-3.774 2.148H344v10.94h11.323c3.984 0 8.6-2.416 8.6-5.5" transform="translate(-344 -217.525)"/><path id="路径_45" data-name="路径 45" class="cls-4" d="M377.634 205.144c0-.805-1.153-1.544-2.411-1.544H370.4v3.02h4.927c1.258 0 2.307-.671 2.307-1.476z" transform="translate(-366.94 -203.6)"/></g><path id="路径_46" data-name="路径 46" d="M180.111 69.2c-5.137 0-8.911 2.081-8.911 5.638v5.772a9.693 9.693 0 014.508-1.141h11.952v1.611a57.309 57.309 0 00-6.919-.6c-2.935 0-5.347 1.544-5.347 3.423s2.411 3.423 5.347 3.423a54.365 54.365 0 006.919-.537v1.471h-11.952a8.673 8.673 0 01-4.508-1.141V99.2h11.322c3.984 0 8.6-2.416 8.6-5.5V69.2z" transform="translate(-148.765)" fill="#e20e37"/><path id="路径_47" data-name="路径 47" d="M171.2 74.9v5.772a9.693 9.693 0 014.508-1.141h11.952v1.611a57.308 57.308 0 00-6.919-.6c-2.935 0-5.347 1.544-5.347 3.423s2.411 3.423 5.347 3.423a54.365 54.365 0 006.919-.537v1.409h-11.952a8.673 8.673 0 01-4.508-1.141V99.2h11.322c3.984 0 8.6-2.416 8.6-5.5V69.2" transform="translate(-148.765)" fill="#b41f36"/><path id="路径_48" data-name="路径 48" d="M187.66 192.4v1.611a57.309 57.309 0 00-6.919-.6c-2.935 0-5.347 1.544-5.347 3.423s2.411 3.423 5.347 3.423a54.364 54.364 0 006.919-.537v1.409h-11.952a8.672 8.672 0 01-4.508-1.141v12.081h11.322c3.984 0 8.6-2.416 8.6-5.5" transform="translate(-148.765 -112.864)" fill="#720a1e"/></g></svg>