<svg xmlns="http://www.w3.org/2000/svg" width="65" height="30" viewBox="0 0 65 30">
  <defs>
    <style>
      .cls-1 {
        fill: #ffb600;
      }

      .cls-2 {
        fill: #f7981d;
      }

      .cls-3 {
        fill: #ff8500;
      }

      .cls-4 {
        fill: #ff5050;
      }

      .cls-5 {
        fill: #e52836;
      }

      .cls-6 {
        fill: #cb2026;
      }

      .cls-7 {
        fill: #fff;
      }

      .cls-8 {
        fill: #dce5e5;
      }
    </style>
  </defs>
  <g id="mastercard" transform="translate(0 -100.8)">
    <path id="路径_49" data-name="路径 49" class="cls-1" d="M240.6,115.8c0,8.254-8.667,15-19.5,15-10.73,0-19.5-6.746-19.5-15h0c0-8.254,8.667-15,19.4-15,10.937,0,19.6,6.746,19.6,15Z" transform="translate(-175.6 0)"/>
    <path id="路径_50" data-name="路径 50" class="cls-2" d="M221.1,100.8c10.73,0,19.5,6.746,19.5,15h0c0,8.254-8.667,15-19.5,15-10.73,0-19.5-6.746-19.5-15" transform="translate(-175.6 0)"/>
    <path id="路径_51" data-name="路径 51" class="cls-3" d="M352.8,100.8c10.73,0,19.5,6.746,19.5,15h0c0,8.254-8.667,15-19.5,15" transform="translate(-307.3 0)"/>
    <path id="路径_52" data-name="路径 52" class="cls-4" d="M19.294,100.8C8.667,100.879,0,107.546,0,115.8s8.667,15,19.5,15a23.338,23.338,0,0,0,13.1-3.889h0a16.773,16.773,0,0,0,1.96-1.587H30.54a19.508,19.508,0,0,1-1.444-1.508h6.913a9.78,9.78,0,0,0,1.135-1.587H27.96a8.348,8.348,0,0,1-.825-1.587h10.73a12.511,12.511,0,0,0,1.032-4.762,15.937,15.937,0,0,0-.413-3.175H26.516a9.48,9.48,0,0,1,.516-1.587h10.73a8.348,8.348,0,0,0-.825-1.587H27.857a15.131,15.131,0,0,1,1.135-1.587H35.9a8.1,8.1,0,0,0-1.548-1.587H30.54a16.229,16.229,0,0,1,1.96-1.508,22.5,22.5,0,0,0-13.1-3.889C19.4,100.8,19.4,100.8,19.294,100.8Z" transform="translate(0 0)"/>
    <path id="路径_53" data-name="路径 53" class="cls-5" d="M0,117.224c0,8.244,8.667,14.982,19.5,14.982a23.357,23.357,0,0,0,13.1-3.884h0a16.769,16.769,0,0,0,1.96-1.585H30.54A19.5,19.5,0,0,1,29.1,125.23h6.913a9.769,9.769,0,0,0,1.135-1.585H27.96a8.335,8.335,0,0,1-.825-1.585h10.73A12.484,12.484,0,0,0,38.9,117.3a15.9,15.9,0,0,0-.413-3.171H26.516a9.461,9.461,0,0,1,.516-1.585h10.73a8.335,8.335,0,0,0-.825-1.585H27.857a15.112,15.112,0,0,1,1.135-1.585H35.9a8.09,8.09,0,0,0-1.548-1.585H30.54a16.224,16.224,0,0,1,1.96-1.506A22.517,22.517,0,0,0,19.4,102.4h-.1" transform="translate(0 -1.406)"/>
    <path id="路径_54" data-name="路径 54" class="cls-6" d="M149.806,132.206a23.357,23.357,0,0,0,13.1-3.884h0a16.769,16.769,0,0,0,1.96-1.585h-4.024a19.5,19.5,0,0,1-1.444-1.506h6.913a9.767,9.767,0,0,0,1.135-1.585h-9.183a8.335,8.335,0,0,1-.825-1.585h10.73A12.485,12.485,0,0,0,169.2,117.3a15.9,15.9,0,0,0-.413-3.171H156.822a9.462,9.462,0,0,1,.516-1.585h10.73a8.336,8.336,0,0,0-.825-1.585h-9.079a15.111,15.111,0,0,1,1.135-1.585h6.913a8.09,8.09,0,0,0-1.548-1.585h-3.817a16.226,16.226,0,0,1,1.96-1.506,22.517,22.517,0,0,0-13.1-3.884h-.1" transform="translate(-130.306 -1.406)"/>
    <g id="组_96" data-name="组 96" transform="translate(1.857 111.033)">
      <path id="路径_55" data-name="路径 55" class="cls-7" d="M184.592,228.519l.31-1.646a4.731,4.731,0,0,1-.516.1c-.722,0-.825-.387-.722-.581l.619-3.388h1.135l.31-1.839H184.7L184.9,220h-2.063s-1.238,6.389-1.238,7.164a1.5,1.5,0,0,0,1.651,1.646A3.336,3.336,0,0,0,184.592,228.519Z" transform="translate(-160.036 -219.129)"/>
      <path id="路径_56" data-name="路径 56" class="cls-7" d="M210.4,233.067c0,2.711,1.96,3.388,3.611,3.388a5.67,5.67,0,0,0,2.167-.29l.413-1.839a6.512,6.512,0,0,1-2.167.484c-2.27,0-1.857-1.549-1.857-1.549h4.23a11.848,11.848,0,0,0,.31-1.743,2.7,2.7,0,0,0-2.992-2.807C211.948,228.517,210.4,230.647,210.4,233.067Zm3.611-2.807c1.135,0,.929,1.258.929,1.355h-2.27C212.67,231.518,212.876,230.26,214.011,230.26Z" transform="translate(-185.122 -226.775)"/>
      <path id="路径_57" data-name="路径 57" class="cls-7" d="M301.675,222.19l.413-2.13a5.313,5.313,0,0,1-1.754.484,2.007,2.007,0,0,1-2.063-2.227c0-2.323,1.238-3.582,2.683-3.582a3.585,3.585,0,0,1,1.857.581l.31-2.033a7.652,7.652,0,0,0-2.373-.484c-2.373,0-4.746,1.936-4.746,5.615,0,2.42,1.238,4.066,3.714,4.066A9.816,9.816,0,0,0,301.675,222.19Z" transform="translate(-259.683 -212.8)"/>
      <path id="路径_58" data-name="路径 58" class="cls-7" d="M90.321,227.2a7.732,7.732,0,0,0-2.476.387l-.31,1.646a6.444,6.444,0,0,1,2.27-.387c.722,0,1.341.1,1.341.678,0,.387-.1.484-.1.484h-.929c-1.754,0-3.714.678-3.714,2.9a1.907,1.907,0,0,0,1.96,2.13,3.181,3.181,0,0,0,2.167-.871l-.1.774h1.857l.825-5.324C93.106,227.3,91.043,227.2,90.321,227.2Zm.413,4.356c0,.29-.206,1.839-1.444,1.839a.778.778,0,0,1-.825-.774c0-.484.31-1.162,1.857-1.162A1.718,1.718,0,0,0,90.733,231.556Z" transform="translate(-77.114 -225.457)"/>
      <path id="路径_59" data-name="路径 59" class="cls-7" d="M137.573,234.338c.516,0,3.1.1,3.1-2.517,0-2.42-2.476-1.936-2.476-2.9,0-.484.413-.678,1.135-.678.31,0,1.444.1,1.444.1l.31-1.743a8.326,8.326,0,0,0-1.96-.194c-1.548,0-3.1.581-3.1,2.517,0,2.227,2.579,2.033,2.579,2.9,0,.581-.722.678-1.238.678a7.145,7.145,0,0,1-1.857-.29l-.31,1.743C135.3,234.145,135.819,234.338,137.573,234.338Z" transform="translate(-119.621 -224.754)"/>
      <path id="路径_60" data-name="路径 60" class="cls-7" d="M433.081,214.4l-.413,2.614a2.9,2.9,0,0,0-1.96-.968c-1.857,0-3.508,2.13-3.508,4.647,0,1.549.825,3.195,2.579,3.195a2.828,2.828,0,0,0,1.96-.774l-.1.678H433.7l1.548-9.293Zm-.929,5.131c0,1.065-.516,2.42-1.651,2.42-.722,0-1.135-.581-1.135-1.549,0-1.549.722-2.517,1.651-2.517C431.74,217.885,432.152,218.369,432.152,219.531Z" transform="translate(-373.962 -214.206)"/>
      <path id="路径_61" data-name="路径 61" class="cls-7" d="M16.36,223.693l1.238-6.97.206,6.97h1.444l2.683-6.97-1.135,6.97h2.167l1.651-9.293h-3.4l-2.063,5.712-.1-5.712H16.051L14.4,223.693Z" transform="translate(-14.4 -214.206)"/>
      <path id="路径_62" data-name="路径 62" class="cls-7" d="M262.27,236.351c.619-3.195.722-5.808,2.167-5.324a7.266,7.266,0,0,1,.722-2.227h-.413c-.929,0-1.651,1.162-1.651,1.162l.206-1.065h-1.96L260,236.448h2.27Z" transform="translate(-228.325 -226.864)"/>
      <path id="路径_63" data-name="路径 63" class="cls-7" d="M350.321,227.2a7.732,7.732,0,0,0-2.476.387l-.31,1.646a6.444,6.444,0,0,1,2.27-.387c.722,0,1.341.1,1.341.678,0,.387-.1.484-.1.484h-.929c-1.754,0-3.714.678-3.714,2.9a1.907,1.907,0,0,0,1.96,2.13,3.181,3.181,0,0,0,2.167-.871l-.1.774h1.857l.825-5.324C353.209,227.3,351.043,227.2,350.321,227.2Zm.516,4.356c0,.29-.206,1.839-1.444,1.839a.778.778,0,0,1-.825-.774c0-.484.31-1.162,1.857-1.162C350.733,231.556,350.733,231.556,350.836,231.556Z" transform="translate(-303.583 -225.457)"/>
      <path id="路径_64" data-name="路径 64" class="cls-7" d="M396.67,236.351c.619-3.195.722-5.808,2.167-5.324a7.267,7.267,0,0,1,.722-2.227h-.413c-.929,0-1.651,1.162-1.651,1.162l.206-1.065h-1.96l-1.341,7.551h2.27Z" transform="translate(-345.392 -226.864)"/>
    </g>
    <g id="组_97" data-name="组 97" transform="translate(1.857 111.033)">
      <path id="路径_65" data-name="路径 65" class="cls-8" d="M180,227.164a1.5,1.5,0,0,0,1.651,1.646,4.147,4.147,0,0,0,1.548-.29l.31-1.646a4.729,4.729,0,0,1-.516.1c-.722,0-.825-.387-.722-.581l.619-3.388h1.135l.31-1.839H183.3l.206-1.162" transform="translate(-158.643 -219.129)"/>
      <path id="路径_66" data-name="路径 66" class="cls-8" d="M218.4,233.067c0,2.711.929,3.388,2.579,3.388a5.67,5.67,0,0,0,2.167-.29l.413-1.839a6.511,6.511,0,0,1-2.167.484c-2.27,0-1.857-1.549-1.857-1.549h4.23a11.847,11.847,0,0,0,.31-1.743,2.7,2.7,0,0,0-2.992-2.807C218.916,228.517,218.4,230.647,218.4,233.067Zm2.579-2.807c1.135,0,1.341,1.258,1.341,1.355h-2.683C219.638,231.518,219.844,230.26,220.979,230.26Z" transform="translate(-192.09 -226.775)"/>
      <path id="路径_67" data-name="路径 67" class="cls-8" d="M308.643,222.19l.413-2.13a5.314,5.314,0,0,1-1.754.484,2.007,2.007,0,0,1-2.064-2.227c0-2.323,1.238-3.582,2.683-3.582a3.585,3.585,0,0,1,1.857.581l.31-2.033a7.652,7.652,0,0,0-2.373-.484c-2.373,0-3.714,1.936-3.714,5.615,0,2.42.206,4.066,2.683,4.066A9.817,9.817,0,0,0,308.643,222.19Z" transform="translate(-266.651 -212.8)"/>
      <path id="路径_68" data-name="路径 68" class="cls-8" d="M87.535,230.736a6.444,6.444,0,0,1,2.27-.387c.722,0,1.341.1,1.341.678,0,.387-.1.484-.1.484h-.929c-1.754,0-3.714.678-3.714,2.9a1.907,1.907,0,0,0,1.96,2.13,3.181,3.181,0,0,0,2.167-.871l-.1.774h1.857l.825-5.324c0-2.227-2.063-2.323-2.889-2.323m1.548,4.163a3.331,3.331,0,0,1-2.476,1.839.778.778,0,0,1-.825-.774c0-.484.31-1.162,1.857-1.162A8.975,8.975,0,0,0,91.765,232.963Z" transform="translate(-77.114 -226.864)"/>
      <path id="路径_69" data-name="路径 69" class="cls-8" d="M136,234.145a9.28,9.28,0,0,0,2.373.194c.516,0,3.1.1,3.1-2.517,0-2.42-2.476-1.936-2.476-2.9,0-.484.413-.678,1.135-.678.309,0,1.444.1,1.444.1l.31-1.743a8.326,8.326,0,0,0-1.96-.194c-1.548,0-2.063.581-2.063,2.517,0,2.227,1.548,2.033,1.548,2.9,0,.581-.722.678-1.238.678" transform="translate(-120.317 -224.754)"/>
      <path id="路径_70" data-name="路径 70" class="cls-8" d="M439.586,217.717a2.9,2.9,0,0,0-1.96-.968c-1.857,0-2.476,2.13-2.476,4.647,0,1.549-.206,3.195,1.548,3.195a2.827,2.827,0,0,0,1.96-.774l-.1.678h2.063l1.548-9.293m-2.683,5.034a2.46,2.46,0,0,1-2.063,2.42c-.722,0-1.135-.581-1.135-1.549,0-1.549.722-2.517,1.651-2.517A1.523,1.523,0,0,1,439.483,220.234Z" transform="translate(-380.88 -214.91)"/>
      <path id="路径_71" data-name="路径 71" class="cls-8" d="M16.36,223.693l1.238-6.97.206,6.97h1.444l2.683-6.97-1.135,6.97h2.167l1.651-9.293H22.035l-2.889,5.712-.1-5.712H17.908L14.4,223.693Z" transform="translate(-14.4 -214.206)"/>
      <path id="路径_72" data-name="路径 72" class="cls-8" d="M260.8,236.351h2.167c.619-3.195.722-5.808,2.167-5.324a7.271,7.271,0,0,1,.722-2.227h-.413c-.929,0-1.651,1.162-1.651,1.162L264,228.9" transform="translate(-229.022 -226.864)"/>
      <path id="路径_73" data-name="路径 73" class="cls-8" d="M347.535,230.736a6.444,6.444,0,0,1,2.27-.387c.722,0,1.341.1,1.341.678,0,.387-.1.484-.1.484h-.929c-1.754,0-3.714.678-3.714,2.9a1.907,1.907,0,0,0,1.96,2.13,3.18,3.18,0,0,0,2.167-.871l-.1.774h1.857l.825-5.324c0-2.227-2.064-2.323-2.889-2.323m1.548,4.163a3.331,3.331,0,0,1-2.476,1.839.778.778,0,0,1-.825-.774c0-.484.309-1.162,1.857-1.162A9.665,9.665,0,0,0,351.765,232.963Z" transform="translate(-303.583 -226.864)"/>
      <path id="路径_74" data-name="路径 74" class="cls-8" d="M395.2,236.351h2.167c.619-3.195.722-5.808,2.167-5.324a7.268,7.268,0,0,1,.722-2.227h-.413c-.929,0-1.651,1.162-1.651,1.162l.206-1.065" transform="translate(-346.089 -226.864)"/>
    </g>
  </g>
</svg>
