<svg xmlns="http://www.w3.org/2000/svg" width="65" height="30" viewBox="0 0 65 30">
  <defs>
    <style>
      .cls-1 {
        fill: #3c58bf;
      }

      .cls-2 {
        fill: #293688;
      }

      .cls-3 {
        fill: #ffbc00;
      }

      .cls-4 {
        fill: #f7981d;
      }

      .cls-5 {
        fill: #ed7c00;
      }

      .cls-6 {
        fill: #051244;
      }
    </style>
  </defs>
  <g id="visa" transform="translate(0 -175.6)">
    <path id="路径_75" data-name="路径 75" class="cls-1" d="M184.8,208.914l3.3-28.514h5.159l-3.2,28.514Z" transform="translate(-160.967 -3.989)"/>
    <path id="路径_76" data-name="路径 76" class="cls-2" d="M184.8,208.914l4.23-28.514h4.23l-3.2,28.514Z" transform="translate(-160.967 -3.989)"/>
    <path id="路径_77" data-name="路径 77" class="cls-1" d="M263.786,176.857a9.233,9.233,0,0,0-4.746-1.257c-5.159,0-8.873,3.93-8.873,9.588,0,4.244,2.579,6.445,4.643,7.859s2.683,2.358,2.683,3.615a2.918,2.918,0,0,1-3.1,2.829,8.091,8.091,0,0,1-4.952-1.572l-.722-.472L248,203.893a11.8,11.8,0,0,0,5.881,1.572c5.468,0,9.079-3.93,9.079-9.9a8.806,8.806,0,0,0-4.436-7.859c-1.857-1.415-2.992-2.2-2.992-3.615,0-1.257.929-2.515,2.992-2.515a6.743,6.743,0,0,1,3.921,1.1l.516.314.825-6.13Z" transform="translate(-216.016)"/>
    <path id="路径_78" data-name="路径 78" class="cls-2" d="M263.786,176.857a9.233,9.233,0,0,0-4.746-1.257c-5.159,0-7.944,3.93-7.944,9.588,0,4.244,1.651,6.445,3.714,7.859s2.683,2.358,2.683,3.615a2.918,2.918,0,0,1-3.1,2.829,8.091,8.091,0,0,1-4.952-1.572l-.722-.472L248,203.893a11.8,11.8,0,0,0,5.881,1.572c5.468,0,9.079-3.93,9.079-9.9a8.806,8.806,0,0,0-4.436-7.859c-1.857-1.415-2.992-2.2-2.992-3.615,0-1.257.929-2.515,2.992-2.515a6.743,6.743,0,0,1,3.921,1.1l.516.314.825-6.13Z" transform="translate(-216.016)"/>
    <path id="路径_79" data-name="路径 79" class="cls-1" d="M368.821,180.4c-1.238,0-2.167.158-2.683,2.059L358.4,208.914h5.571L365,204.161h6.6l.619,4.752h4.952L372.844,180.4Zm-2.373,19.009c.31-1.426,2.063-8.4,2.063-8.4s.413-1.742.722-2.851l.309,2.693s1.032,7.128,1.238,8.712h-4.333Z" transform="translate(-312.178 -3.989)"/>
    <path id="路径_80" data-name="路径 80" class="cls-2" d="M370.059,180.4c-1.238,0-2.167.158-2.682,2.059L358.4,208.914h5.571L365,204.161h6.6l.619,4.752h4.952L372.844,180.4Zm-3.611,19.009c.413-1.584,2.063-8.4,2.063-8.4s.413-1.742.722-2.851l.31,2.693s1.032,7.128,1.238,8.712h-4.333Z" transform="translate(-312.178 -3.989)"/>
    <path id="路径_81" data-name="路径 81" class="cls-1" d="M58.938,201l-.516-4.119c-.929-4.752-3.921-9.98-7.222-12.514l4.643,25.345h5.571L69.771,181.2H64.2Z" transform="translate(-44.597 -4.654)"/>
    <path id="路径_82" data-name="路径 82" class="cls-2" d="M58.938,201l-.516-4.119c-.929-4.752-3.921-9.98-7.222-12.514l4.643,25.345h5.571L69.771,181.2h-4.54Z" transform="translate(-44.597 -4.654)"/>
    <path id="路径_83" data-name="路径 83" class="cls-3" d="M0,180.4l.929.27a19.248,19.248,0,0,1,12.9,13.243l-1.857-11.486A2.154,2.154,0,0,0,9.6,180.4Z" transform="translate(0 -3.989)"/>
    <path id="路径_84" data-name="路径 84" class="cls-4" d="M0,180.4H0c6.6,2.027,12.071,7.3,13.825,13.378l-1.754-9.594c-.31-1.622-1.341-2.567-2.476-2.567Z" transform="translate(0 -3.989)"/>
    <path id="路径_85" data-name="路径 85" class="cls-5" d="M0,180.4H0c6.6,2.027,12.071,7.3,13.825,13.378l-1.238-5.27c-.31-1.622-.722-3.243-2.167-3.919Z" transform="translate(0 -3.989)"/>
    <g id="组_98" data-name="组 98" transform="translate(6.706 179.113)">
      <path id="路径_86" data-name="路径 86" class="cls-6" d="M64.794,212.532l-3.508-5.485-1.651,6.13-.413-4.033C58.294,204.3,55.3,198.981,52,196.4l4.643,25.811h5.571Z" transform="translate(-52 -196.4)"/>
      <path id="路径_87" data-name="路径 87" class="cls-6" d="M190.062,295.146l-4.436-5.946-.825,5.946Z" transform="translate(-167.673 -269.335)"/>
      <path id="路径_88" data-name="路径 88" class="cls-6" d="M256.976,274.8h0a1.775,1.775,0,0,1,.516,1.486c0,1.622-1.651,2.432-3.1,2.432a9.023,9.023,0,0,1-4.952-1.351l-.722-.405L248,282.5a13.287,13.287,0,0,0,5.881,1.351c3.3,0,5.984-1.216,7.532-3.378Z" transform="translate(-222.722 -257.367)"/>
      <path id="路径_89" data-name="路径 89" class="cls-6" d="M364,237.3h4.849l1.032-4.054h6.6l.619,4.054h4.952l-1.754-9.865-6.19-7.838.31,2.162s1.032,6.081,1.238,7.432h-4.333c.413-1.351,2.063-7.162,2.063-7.162s.413-1.486.722-2.432" transform="translate(-323.762 -211.491)"/>
    </g>
  </g>
</svg>
