<svg xmlns="http://www.w3.org/2000/svg" width="20.901" height="20.042" viewBox="0 0 20.901 20.042">
  <defs>
    <style>
      .cls-1 {
        fill: none;
        stroke: #54383b;
        stroke-linecap: round;
        stroke-linejoin: round;
        stroke-width: 2px;
      }
    </style>
  </defs>
  <g id="Icon_feather-shopping-cart" data-name="Icon feather-shopping-cart" transform="translate(1 1)">
    <path id="Path_26" data-name="Path 26" class="cls-1" d="M13.718,30.859A.859.859,0,1,1,12.859,30,.859.859,0,0,1,13.718,30.859Z" transform="translate(-5.986 -13.676)"/>
    <path id="Path_27" data-name="Path 27" class="cls-1" d="M30.218,30.859A.859.859,0,1,1,29.359,30,.859.859,0,0,1,30.218,30.859Z" transform="translate(-13.036 -13.676)"/>
    <path id="Path_28" data-name="Path 28" class="cls-1" d="M1.5,1.5H4.937L7.239,13a1.718,1.718,0,0,0,1.718,1.383h8.351A1.718,1.718,0,0,0,19.026,13L20.4,5.8H5.8" transform="translate(-1.5 -1.5)"/>
  </g>
</svg>
