<svg xmlns="http://www.w3.org/2000/svg" width="170.2" height="142.836"><g data-name="Group 323"><path data-name="Icon awesome-crown" d="M129.719 123.788L28.962 111.631a3.926 3.926 0 00-4.355 3.396l-.958 7.73a3.9 3.9 0 003.398 4.333l100.756 12.157a3.926 3.926 0 004.355-3.395l.96-7.73a3.9 3.9 0 00-3.4-4.334zm25.088-75.431a11.747 11.747 0 00-13.065 10.192 11.398 11.398 0 00.473 4.912l-18.836 8.373a7.79 7.79 0 01-10.358-4.094L97.554 30.907A11.625 11.625 0 0092.762 9.49a11.747 11.747 0 00-13.063 10.19 11.58 11.58 0 003.174 9.454L58.865 61.2a7.827 7.827 0 01-11.053 1.513L31.6 50.114a11.698 11.698 0 10-11.43 5.536 11.998 11.998 0 001.89.03l11.735 48.687 93.01 11.222 23.287-44.461a11.97 11.97 0 001.841.419 11.684 11.684 0 102.877-23.19z" fill="rgba(70,93,76,0.2)"/><text data-name="1" transform="rotate(7.06 -692.369 642.357)" fill="#fff" font-size="39" font-family="SegoeUI, Segoe UI"><tspan x="0" y="0">1</tspan></text></g></svg>