<svg xmlns="http://www.w3.org/2000/svg" width="170.2" height="142.836" viewBox="0 0 170.2 142.836">
  <g id="Group_323" data-name="Group 323" transform="translate(-1384.02 172.881) rotate(-21)">
    <path id="Icon_awesome-crown" data-name="Icon awesome-crown" d="M128.724,108.985l-101.505.168a3.927,3.927,0,0,0-3.911,3.9l-.013,7.791a3.9,3.9,0,0,0,3.9,3.889l101.505-.168a3.927,3.927,0,0,0,3.911-3.9l.013-7.791A3.9,3.9,0,0,0,128.724,108.985Zm15.745-77.933a11.749,11.749,0,0,0-11.732,11.705,11.4,11.4,0,0,0,1.066,4.819l-17.683,10.6a7.792,7.792,0,0,1-10.78-2.806L85.511,20.682A11.627,11.627,0,0,0,78.152,0,11.749,11.749,0,0,0,66.421,11.705a11.582,11.582,0,0,0,4.3,9L50.781,55.456A7.828,7.828,0,0,1,39.991,58.3L22.367,47.761a11.7,11.7,0,1,0-10.674,6.883,12,12,0,0,0,1.879-.2l17.564,46.91,93.7-.155,17.719-46.968a11.972,11.972,0,0,0,1.879.192,11.686,11.686,0,1,0,.039-23.372Z" transform="matrix(0.883, 0.469, -0.469, 0.883, 1368.241, 340.038)" fill="rgba(70,93,76,0.2)"/>
    <text id="_1" data-name="1" transform="matrix(0.883, 0.469, -0.469, 0.883, 1390.094, 443.679)" fill="#fff" font-size="39" font-family="SegoeUI, Segoe UI"><tspan x="0" y="0">1</tspan></text>
  </g>
</svg>
