<svg xmlns="http://www.w3.org/2000/svg" width="129.961" height="109.067" viewBox="0 0 129.961 109.067">
  <g id="Group_1125" data-name="Group 1125" transform="translate(-1374.689 167.92) rotate(-21)">
    <path id="Icon_awesome-crown" data-name="Icon awesome-crown" d="M98.291,83.219l-77.508.128A3,3,0,0,0,17.8,86.327l-.01,5.949a2.975,2.975,0,0,0,2.976,2.969l77.508-.128a3,3,0,0,0,2.986-2.979l.01-5.949A2.975,2.975,0,0,0,98.291,83.219Zm12.023-59.508a8.971,8.971,0,0,0-8.958,8.938,8.708,8.708,0,0,0,.814,3.679l-13.5,8.09a5.95,5.95,0,0,1-8.232-2.143L65.295,15.792A8.878,8.878,0,0,0,59.676,0a8.971,8.971,0,0,0-8.958,8.938A8.844,8.844,0,0,0,54,15.811L38.775,42.345a5.977,5.977,0,0,1-8.239,2.17L17.079,36.47a8.936,8.936,0,1,0-8.151,5.256,9.161,9.161,0,0,0,1.435-.151L23.775,77.394l71.546-.118,13.53-35.864a9.142,9.142,0,0,0,1.434.146,8.923,8.923,0,1,0,.03-17.846Z" transform="matrix(0.883, 0.469, -0.469, 0.883, 1354.397, 340.038)" fill="rgba(189,167,156,0.7)"/>
    <text id="_1" data-name="1" transform="matrix(0.883, 0.469, -0.469, 0.883, 1369.967, 419.604)" fill="#fff" font-size="32" font-family="SegoeUI, Segoe UI"><tspan x="0" y="0">1</tspan></text>
  </g>
</svg>
