<svg xmlns="http://www.w3.org/2000/svg" width="129.961" height="109.067"><g data-name="Group 1125"><path data-name="Icon awesome-crown" d="M99.051 94.523l-76.936-9.284a3 3 0 00-3.323 2.596l-.732 5.902a2.974 2.974 0 002.593 3.308l76.937 9.283a3 3 0 003.325-2.593l.732-5.903a2.974 2.974 0 00-2.596-3.31zm19.157-57.598a8.97 8.97 0 00-9.975 7.783 8.706 8.706 0 00.36 3.75l-14.38 6.39a5.949 5.949 0 01-7.909-3.127l-11.813-28.12a8.876 8.876 0 00-3.659-16.355 8.97 8.97 0 00-9.975 7.782 8.842 8.842 0 002.423 7.22L44.948 46.732a5.976 5.976 0 01-8.44 1.154L24.13 38.268a8.934 8.934 0 10-8.727 4.226 9.16 9.16 0 001.442.025l8.962 37.176 71.018 8.569 17.782-33.95a9.14 9.14 0 001.405.32 8.921 8.921 0 102.197-17.708z" fill="rgba(189,167,156,0.7)"/><text data-name="1" transform="rotate(7.06 -535.696 483.61)" fill="#fff" font-size="32" font-family="SegoeUI, Segoe UI"><tspan x="0" y="0">1</tspan></text></g></svg>