<svg xmlns="http://www.w3.org/2000/svg" width="40" height="40.184"><path data-name="Icon material-3d-rotation" d="M12.507 35.965a17.559 17.559 0 01-10-14.2H0a20.082 20.082 0 0020.008 18.419l1.105-.05-6.379-6.379zm1.49-10.917a2.8 2.8 0 01-.871-.134 1.791 1.791 0 01-.67-.4 1.66 1.66 0 01-.435-.62 2 2 0 01-.151-.787H9.694a3.426 3.426 0 00.352 1.591 3.7 3.7 0 00.938 1.155 4.229 4.229 0 001.373.686 5.051 5.051 0 001.607.251 5.647 5.647 0 001.725-.251 4.083 4.083 0 001.39-.737A3.312 3.312 0 0018 24.596a3.911 3.911 0 00.335-1.624 3.511 3.511 0 00-.117-.938 2.8 2.8 0 00-.385-.854 3.009 3.009 0 00-.67-.72 3.443 3.443 0 00-1.021-.519 3.512 3.512 0 00.871-.553 3.46 3.46 0 00.62-.7 2.951 2.951 0 00.368-.77 2.669 2.669 0 00.117-.8 4.047 4.047 0 00-.3-1.607 2.981 2.981 0 00-.854-1.155 3.445 3.445 0 00-1.289-.72 6.1 6.1 0 00-1.708-.234 4.946 4.946 0 00-1.674.268 4.26 4.26 0 00-1.323.753 3.764 3.764 0 00-.854 1.122 3.337 3.337 0 00-.3 1.423h2.177a1.78 1.78 0 01.151-.753 1.574 1.574 0 01.419-.569 1.985 1.985 0 01.636-.368 2.451 2.451 0 01.8-.134 1.92 1.92 0 011.49.519 2.023 2.023 0 01.486 1.44 2.554 2.554 0 01-.134.82 1.456 1.456 0 01-.419.62 2.123 2.123 0 01-.686.4 2.817 2.817 0 01-.971.151h-1.291v1.725h1.289a3.761 3.761 0 011 .117 2 2 0 01.753.385 1.972 1.972 0 01.486.67 2.373 2.373 0 01.167.954 2.007 2.007 0 01-.586 1.557 2.145 2.145 0 01-1.591.553zm14.316-9.912a5.576 5.576 0 00-1.909-1.289 6.3 6.3 0 00-2.445-.452h-3.951v13.394h3.851a6.8 6.8 0 002.528-.452 5.517 5.517 0 001.938-1.272 5.651 5.651 0 001.239-1.992 7.659 7.659 0 00.435-2.629v-.67a7.659 7.659 0 00-.435-2.629 5.851 5.851 0 00-1.256-2.009zm-.653 5.291a7.314 7.314 0 01-.234 1.892 4.071 4.071 0 01-.72 1.423 3.13 3.13 0 01-1.189.887 4.3 4.3 0 01-1.658.3h-1.523V15.27h1.624a3.322 3.322 0 012.746 1.155 5.1 5.1 0 01.954 3.332v.67zM20.008 0l-1.105.05 6.379 6.379L27.509 4.2a17.531 17.531 0 019.979 14.2H40A20.053 20.053 0 0020.008 0z" fill="#bda79e"/></svg>