<svg xmlns="http://www.w3.org/2000/svg" width="51.046" height="45.206"><path data-name="Icon awesome-chair" d="M13.023 11.552c0-2.552 1.81-4.752 4.466-5.952v17h5.357V4.644h5.357V22.6h5.357v-17c2.658 1.2 4.463 3.4 4.463 5.952V22.6h5.36V11.552C43.383 5.447 36.988.5 29.097.5h-7.143C14.063.5 7.668 5.447 7.668 11.552V22.6h5.355zM50.336 30.02l-1.194-2.763a3.622 3.622 0 00-3.393-1.891H5.29a3.622 3.622 0 00-3.393 1.891L.703 30.02c-.759 1.787.96 3.635 3.393 3.635v9.67a1.628 1.628 0 001.786 1.381h3.572a1.628 1.628 0 001.786-1.381v-9.67h28.571v9.67a1.628 1.628 0 001.786 1.381h3.572a1.628 1.628 0 001.786-1.381v-9.67c2.432 0 4.151-1.848 3.381-3.635z" fill="#54383b" stroke="#54383b"/></svg>