<svg xmlns="http://www.w3.org/2000/svg" width="64.333" height="39"><path data-name="Icon awesome-bed" d="M17.917 19.5A7.917 7.917 0 1010 11.583a7.926 7.926 0 007.917 7.917zM52.75 6.833H30.583A1.583 1.583 0 0029 8.417v14.25H6.833V2.083A1.583 1.583 0 005.25.5H2.083A1.583 1.583 0 00.5 2.083v34.834A1.583 1.583 0 002.083 38.5H5.25a1.583 1.583 0 001.583-1.583v-4.75H57.5v4.75a1.583 1.583 0 001.583 1.583h3.167a1.583 1.583 0 001.583-1.583v-19A11.083 11.083 0 0052.75 6.833z" fill="#54383b" stroke="#54383b"/></svg>