<svg xmlns="http://www.w3.org/2000/svg" width="57" height="62" viewBox="0 0 57 62">
  <g id="Group_66" data-name="Group 66" transform="translate(-1251 -673)">
    <g id="Rectangle_271" data-name="Rectangle 271" transform="translate(1251 673)" fill="none" stroke="#54383b" stroke-width="1">
      <rect width="57" height="62" stroke="none"/>
      <rect x="0.5" y="0.5" width="56" height="61" fill="none"/>
    </g>
    <line id="Line_200" data-name="Line 200" y2="61" transform="translate(1279.5 673.5)" fill="none" stroke="#54383b" stroke-width="1"/>
    <line id="Line_201" data-name="Line 201" x2="28" transform="translate(1279.5 691.5)" fill="none" stroke="#54383b" stroke-width="1"/>
    <line id="Line_203" data-name="Line 203" x2="28" transform="translate(1251.5 691.5)" fill="none" stroke="#54383b" stroke-width="1"/>
    <line id="Line_202" data-name="Line 202" x2="28" transform="translate(1279.5 716.5)" fill="none" stroke="#54383b" stroke-width="1"/>
    <line id="Line_204" data-name="Line 204" x2="28" transform="translate(1251.5 704.5)" fill="none" stroke="#54383b" stroke-width="1"/>
    <g id="Rectangle_272" data-name="Rectangle 272" transform="translate(1255 678)" fill="#fff" stroke="#54383b" stroke-width="1">
      <rect width="4" height="13" stroke="none"/>
      <rect x="0.5" y="0.5" width="3" height="12" fill="none"/>
    </g>
    <g id="Rectangle_276" data-name="Rectangle 276" transform="translate(1281 703)" fill="#fff" stroke="#54383b" stroke-width="1">
      <rect width="4" height="13" stroke="none"/>
      <rect x="0.5" y="0.5" width="3" height="12" fill="none"/>
    </g>
    <g id="Rectangle_273" data-name="Rectangle 273" transform="translate(1259 678)" fill="#fff" stroke="#54383b" stroke-width="1">
      <rect width="4" height="13" stroke="none"/>
      <rect x="0.5" y="0.5" width="3" height="12" fill="none"/>
    </g>
    <g id="Rectangle_277" data-name="Rectangle 277" transform="translate(1285 703)" fill="#fff" stroke="#54383b" stroke-width="1">
      <rect width="4" height="13" stroke="none"/>
      <rect x="0.5" y="0.5" width="3" height="12" fill="none"/>
    </g>
    <g id="Rectangle_274" data-name="Rectangle 274" transform="translate(1263 678)" fill="#fff" stroke="#54383b" stroke-width="1">
      <rect width="4" height="13" stroke="none"/>
      <rect x="0.5" y="0.5" width="3" height="12" fill="none"/>
    </g>
    <g id="Rectangle_278" data-name="Rectangle 278" transform="translate(1289 703)" fill="#fff" stroke="#54383b" stroke-width="1">
      <rect width="4" height="13" stroke="none"/>
      <rect x="0.5" y="0.5" width="3" height="12" fill="none"/>
    </g>
    <g id="Rectangle_275" data-name="Rectangle 275" transform="translate(1267 678)" fill="#fff" stroke="#54383b" stroke-width="1">
      <rect width="4" height="13" stroke="none"/>
      <rect x="0.5" y="0.5" width="3" height="12" fill="none"/>
    </g>
    <g id="Rectangle_279" data-name="Rectangle 279" transform="translate(1293 703)" fill="#fff" stroke="#54383b" stroke-width="1">
      <rect width="4" height="13" stroke="none"/>
      <rect x="0.5" y="0.5" width="3" height="12" fill="none"/>
    </g>
    <g id="Rectangle_280" data-name="Rectangle 280" transform="translate(1297 703)" fill="#fff" stroke="#54383b" stroke-width="1">
      <rect width="4" height="13" stroke="none"/>
      <rect x="0.5" y="0.5" width="3" height="12" fill="none"/>
    </g>
  </g>
</svg>
