<svg xmlns="http://www.w3.org/2000/svg" width="80" height="63.415"><path data-name="Icon awesome-truck" d="M78 43.6h-2V30.209a5.918 5.918 0 00-1.763-4.2L61.75 13.637a6.028 6.028 0 00-4.238-1.746H52V5.945A5.974 5.974 0 0046 0H6a5.974 5.974 0 00-6 5.945V45.58a5.974 5.974 0 006 5.945h2a12 12 0 0024 0h16a12 12 0 0024 0h6a2 2 0 002-1.982V45.58a2 2 0 00-2-1.98zM20 57.47a5.945 5.945 0 116-5.945 5.974 5.974 0 01-6 5.945zm40 0a5.945 5.945 0 116-5.945 5.974 5.974 0 01-6 5.945zm10-25.762H52V17.835h5.512L70 30.209z" fill="#54383b"/></svg>