<svg xmlns="http://www.w3.org/2000/svg" width="64.333" height="39" viewBox="0 0 64.333 39">
  <path id="Icon_awesome-bed" data-name="Icon awesome-bed" d="M17.417,23.5A7.917,7.917,0,1,0,9.5,15.583,7.926,7.926,0,0,0,17.417,23.5ZM52.25,10.833H30.083A1.583,1.583,0,0,0,28.5,12.417v14.25H6.333V6.083A1.583,1.583,0,0,0,4.75,4.5H1.583A1.583,1.583,0,0,0,0,6.083V40.917A1.583,1.583,0,0,0,1.583,42.5H4.75a1.583,1.583,0,0,0,1.583-1.583v-4.75H57v4.75A1.583,1.583,0,0,0,58.583,42.5H61.75a1.583,1.583,0,0,0,1.583-1.583v-19A11.083,11.083,0,0,0,52.25,10.833Z" transform="translate(0.5 -4)" fill="#54383b" stroke="#54383b" stroke-width="1"/>
</svg>
