<svg xmlns="http://www.w3.org/2000/svg" width="57" height="62"><g data-name="Group 66" stroke="#54383b" stroke-width="2"><g data-name="Rectangle 271" fill="none"><path d="M0 0h57v62H0z" stroke="none"/><path d="M1 1h55v60H1z"/></g><path data-name="Line 200" fill="none" d="M28.5.5v61"/><path data-name="Line 201" fill="none" d="M28.5 18.5h28"/><path data-name="Line 203" fill="none" d="M.5 18.5h28"/><path data-name="Line 202" fill="none" d="M28.5 43.5h28"/><path data-name="Line 204" fill="none" d="M.5 31.5h28"/><g data-name="Rectangle 272" fill="#fff"><path d="M4 5h4v13H4z" stroke="none"/><path fill="none" d="M5 6h2v11H5z"/></g><g data-name="Rectangle 276" fill="none"><path d="M32.042 29.767l3.95.626-2.033 12.84-3.95-.626z" stroke="none"/><path d="M32.873 30.911l1.976.313-1.721 10.865-1.976-.313z"/></g><g data-name="Rectangle 273" fill="#fff"><path d="M9 5h4v13H9z" stroke="none"/><path fill="none" d="M10 6h2v11h-2z"/></g><g data-name="Rectangle 277" fill="none"><path d="M36 30h4v13h-4z" stroke="none"/><path d="M37 31h2v11h-2z"/></g><g data-name="Rectangle 274" fill="#fff"><path d="M14 5h4v13h-4z" stroke="none"/><path fill="none" d="M15 6h2v11h-2z"/></g><g data-name="Rectangle 278" fill="none"><path d="M41 30h4v13h-4z" stroke="none"/><path d="M42 31h2v11h-2z"/></g><g data-name="Rectangle 275" fill="#fff"><path d="M19 5h4v13h-4z" stroke="none"/><path fill="none" d="M20 6h2v11h-2z"/></g><g data-name="Rectangle 279" fill="none"><path d="M46 30h4v13h-4z" stroke="none"/><path d="M47 31h2v11h-2z"/></g><g data-name="Rectangle 280" fill="none"><path d="M51 30h4v13h-4z" stroke="none"/><path d="M52 31h2v11h-2z"/></g></g></svg>