<svg xmlns="http://www.w3.org/2000/svg" width="50.685" height="39.824"><g data-name="Icon ionic-ios-bed" fill="#54383b"><path data-name="Path 19" d="M48.219 14.481h-.045a2.472 2.472 0 00-2.466 2.466.251.251 0 01-.249.249H5.227a.251.251 0 01-.249-.249 2.472 2.472 0 00-2.466-2.466h-.046A2.472 2.472 0 000 16.947v20.409a2.472 2.472 0 002.466 2.466h.045a2.472 2.472 0 002.467-2.466v-.7a.454.454 0 01.453-.453H45.25a.454.454 0 01.453.453v.7a2.472 2.472 0 002.466 2.466h.045a2.472 2.472 0 002.471-2.466V16.947a2.472 2.472 0 00-2.466-2.466z"/><path data-name="Path 20" d="M5.883 15.16h2.545a.454.454 0 00.453-.453v-1.47a1.816 1.816 0 011.81-1.81h11.031a1.816 1.816 0 011.81 1.81v1.471a.454.454 0 00.453.453H26.7a.454.454 0 00.453-.453v-1.471a1.816 1.816 0 011.81-1.81h11.03a1.815 1.815 0 011.81 1.81v1.471a.454.454 0 00.453.453h2.546a.908.908 0 00.905-.905V3.62A3.631 3.631 0 0042.087 0H8.598a3.631 3.631 0 00-3.62 3.62v10.635a.908.908 0 00.905.905z"/></g></svg>