<svg xmlns="http://www.w3.org/2000/svg" width="57" height="62"><g data-name="Group 66" stroke="#54383b"><g data-name="Rectangle 271" fill="none"><path d="M0 0h57v62H0z" stroke="none"/><path d="M.5.5h56v61H.5z"/></g><path data-name="Line 200" fill="none" d="M28.5.5v61"/><path data-name="Line 201" fill="none" d="M28.5 18.5h28"/><path data-name="Line 203" fill="none" d="M.5 18.5h28"/><path data-name="Line 202" fill="none" d="M28.5 43.5h28"/><path data-name="Line 204" fill="none" d="M.5 31.5h28"/><g data-name="Rectangle 272" fill="#fff"><path d="M4 5h4v13H4z" stroke="none"/><path fill="none" d="M4.5 5.5h3v12h-3z"/></g><g data-name="Rectangle 276" fill="#fff"><path d="M30 30h4v13h-4z" stroke="none"/><path fill="none" d="M30.5 30.5h3v12h-3z"/></g><g data-name="Rectangle 273" fill="#fff"><path d="M8 5h4v13H8z" stroke="none"/><path fill="none" d="M8.5 5.5h3v12h-3z"/></g><g data-name="Rectangle 277" fill="#fff"><path d="M34 30h4v13h-4z" stroke="none"/><path fill="none" d="M34.5 30.5h3v12h-3z"/></g><g data-name="Rectangle 274" fill="#fff"><path d="M12 5h4v13h-4z" stroke="none"/><path fill="none" d="M12.5 5.5h3v12h-3z"/></g><g data-name="Rectangle 278" fill="#fff"><path d="M38 30h4v13h-4z" stroke="none"/><path fill="none" d="M38.5 30.5h3v12h-3z"/></g><g data-name="Rectangle 275" fill="#fff"><path d="M16 5h4v13h-4z" stroke="none"/><path fill="none" d="M16.5 5.5h3v12h-3z"/></g><g data-name="Rectangle 279" fill="#fff"><path d="M42 30h4v13h-4z" stroke="none"/><path fill="none" d="M42.5 30.5h3v12h-3z"/></g><g data-name="Rectangle 280" fill="#fff"><path d="M46 30h4v13h-4z" stroke="none"/><path fill="none" d="M46.5 30.5h3v12h-3z"/></g></g></svg>