<svg xmlns="http://www.w3.org/2000/svg" width="51.046" height="45.206" viewBox="0 0 51.046 45.206">
  <path id="Icon_awesome-chair" data-name="Icon awesome-chair" d="M12.5,11.052C12.5,8.5,14.31,6.3,16.966,5.1v17h5.357V4.144h5.357V22.1h5.357V5.1C35.695,6.3,37.5,8.5,37.5,11.052V22.1H42.86V11.052C42.86,4.947,36.465,0,28.574,0H21.431C13.54,0,7.145,4.947,7.145,11.052V22.1H12.5ZM49.813,29.52l-1.194-2.763a3.622,3.622,0,0,0-3.393-1.891H4.767a3.622,3.622,0,0,0-3.393,1.891L.18,29.52c-.759,1.787.96,3.635,3.393,3.635v9.67a1.628,1.628,0,0,0,1.786,1.381H8.931a1.628,1.628,0,0,0,1.786-1.381v-9.67H39.288v9.67a1.628,1.628,0,0,0,1.786,1.381h3.572a1.628,1.628,0,0,0,1.786-1.381v-9.67C48.864,33.155,50.583,31.307,49.813,29.52Z" transform="translate(0.523 0.5)" fill="#54383b" stroke="#54383b" stroke-width="1"/>
</svg>
