<svg xmlns="http://www.w3.org/2000/svg" width="50.685" height="39.824" viewBox="0 0 50.685 39.824">
  <g id="Icon_ionic-ios-bed" data-name="Icon ionic-ios-bed" transform="translate(-1.25 -3.125)">
    <path id="Path_19" data-name="Path 19" d="M49.469,8.125h-.045a2.472,2.472,0,0,0-2.466,2.466.251.251,0,0,1-.249.249H6.477a.251.251,0,0,1-.249-.249A2.472,2.472,0,0,0,3.762,8.125H3.716A2.472,2.472,0,0,0,1.25,10.591V31a2.472,2.472,0,0,0,2.466,2.466h.045A2.472,2.472,0,0,0,6.228,31v-.7a.454.454,0,0,1,.453-.453H46.5a.454.454,0,0,1,.453.453V31a2.472,2.472,0,0,0,2.466,2.466h.045A2.472,2.472,0,0,0,51.935,31V10.591A2.472,2.472,0,0,0,49.469,8.125Z" transform="translate(0 9.481)" fill="#54383b"/>
    <path id="Path_20" data-name="Path 20" d="M3.874,18.285H6.419a.454.454,0,0,0,.453-.453V16.362a1.816,1.816,0,0,1,1.81-1.81H19.713a1.816,1.816,0,0,1,1.81,1.81v1.471a.454.454,0,0,0,.453.453h2.715a.454.454,0,0,0,.453-.453V16.362a1.816,1.816,0,0,1,1.81-1.81H37.984a1.815,1.815,0,0,1,1.81,1.81v1.471a.454.454,0,0,0,.453.453h2.546a.908.908,0,0,0,.905-.905V6.745a3.631,3.631,0,0,0-3.62-3.62H6.589a3.631,3.631,0,0,0-3.62,3.62V17.38A.908.908,0,0,0,3.874,18.285Z" transform="translate(3.259)" fill="#54383b"/>
  </g>
</svg>
