<svg xmlns="http://www.w3.org/2000/svg" width="44.803" height="53.24" viewBox="0 0 44.803 53.24">
  <path id="rotateright_baseline" d="M38.484,14.3,25.687,1.5v8.634a22.477,22.477,0,0,0,0,44.606V49.059a16.855,16.855,0,0,1,0-33.243v11ZM50.8,29.625a22.236,22.236,0,0,0-4.556-10.941l-3.994,3.994a16.329,16.329,0,0,1,2.869,6.947ZM31.312,49.031v5.681a22.286,22.286,0,0,0,10.969-4.528l-4.05-4.05A16.272,16.272,0,0,1,31.312,49.031Zm10.941-6.806,3.994,3.966A22.236,22.236,0,0,0,50.8,35.25H45.122a16.585,16.585,0,0,1-2.869,6.975Z" transform="translate(-6 -1.5)" fill="#bda79e"/>
</svg>
