<svg xmlns="http://www.w3.org/2000/svg" width="44.5" height="52.881" viewBox="0 0 44.5 52.881">
  <path id="rotateleft_outline" d="M14.6,22.535l-3.939-3.967A22.129,22.129,0,0,0,6.105,29.435h5.643A16.579,16.579,0,0,1,14.6,22.535ZM11.748,35.022H6.105A22.086,22.086,0,0,0,10.63,45.889l3.939-3.967a16.748,16.748,0,0,1-2.821-6.9Zm2.821,14.861a22.136,22.136,0,0,0,10.895,4.5V48.71a16.52,16.52,0,0,1-6.872-2.877l-4.023,4.051ZM31.051,10.076V1.5L18.341,14.21l12.71,12.431V15.719a16.741,16.741,0,0,1,0,33.019v5.643a22.325,22.325,0,0,0,0-44.3Z" transform="translate(-6.105 -1.5)" fill="#bda79e"/>
</svg>
